# xmcd
#
# Track frame offsets:
#	150
#	15773
#	31194
#	46624
#	64135
#	80705
#	100619
#	113959
#	131948
#	145741
#	161911
#	177532
#
# Disc length: 2560 seconds
# Revision: 1
# Processed by: cddbd v1.5.2PL0 Copyright (c) Steve Scherf et al.
# Submitted via: dBpowerAMP V12.0
#
DISCID=9a09fe0c
DTITLE=Tom Maxwell - Sing Me Another Bush Ballad
DYEAR=2006
DGENRE=Country
TTITLE0=Sing Me Another Bush Ballad
TTITLE1=Buchanan's Land
TTITLE2=West of Winton
TTITLE3=Picaninny Dawn
TTITLE4=The Vanishing Breed
TTITLE5=Logan
TTITLE6=A Thousand Years ago
TTITLE7=Bush Women
TTITLE8=Still The Way I Feel
TTITLE9=Freedom is The Where Eagles Fly
TTITLE10=The Lost Saddle
TTITLE11=The Bush Land Never Sleeps
EXTD=
EXTT0=
EXTT1=
EXTT2=
EXTT3=
EXTT4=
EXTT5=
EXTT6=
EXTT7=
EXTT8=
EXTT9=
EXTT10=
EXTT11=
PLAYORDER=
